# AST/ASF file generated using VICON BodyLanguage
# -----------------------------------------------
:version 1.10
:name VICON
:units
  mass 1.0
  length 0.45
  angle deg
:documentation
   .ast/.asf automatically generated from VICON data using
   VICON BodyBuilder and BodyLanguage model FoxedUp or BRILLIANT.MOD
:root
   order TX TY TZ RX RY RZ
   axis XYZ
   position 0 0 0  
   orientation 0 0 0 
:bonedata
  begin
     id 1 
     name lhipjoint
     direction 0.61522 -0.761478 0.204097 
     length 2.55743 
     axis 0 0 0  XYZ
  end
  begin
     id 2 
     name lfemur
     direction 0.34202 -0.939693 0  
     length 7.61162  
     axis 0 0 20  XYZ
    dof rx ry rz
    limits (-160.0 20.0)
           (-70.0 70.0)
           (-60.0 70.0)
  end
  begin
     id 3 
     name ltibia
     direction 0.34202 -0.939693 0   
     length 8.12393   
     axis 0 0 20   XYZ
    dof rx
    limits (-10.0 170.0)
  end
  begin
     id 4 
     name lfoot
     direction 0.0841971 -0.23133 0.969225   
     length 2.3572   
     axis -90 7.62852e-016 20   XYZ
    dof rx rz
    limits (-45.0 90.0)
           (-70.0 20.0)
  end
  begin
     id 5 
     name ltoes
     direction 1.53562e-011 -4.22209e-011 1   
     length 1.17993   
     axis -90 7.62852e-016 20   XYZ
    dof rx
    limits (-90.0 20.0)
  end
  begin
     id 6 
     name rhipjoint
     direction -0.625247 -0.75382 0.202044   
     length 2.58341  
     axis 0 0 0  XYZ 
  end
  begin
     id 7 
     name rfemur
     direction -0.34202 -0.939693 0   
     length 7.42147   
     axis 0 0 -20   XYZ
    dof rx ry rz
    limits (-160.0 20.0)
           (-70.0 70.0)
           (-70.0 60.0)
  end
  begin
     id 8 
     name rtibia
     direction -0.34202 -0.939693 0   
     length 8.20893   
     axis 0 0 -20   XYZ
    dof rx
    limits (-10.0 170.0)
 end
 begin
     id 9 
     name rfoot
     direction -0.124331 -0.341598 0.931586   
     length 2.45604  
     axis -90 -7.62852e-016 -20   XYZ
    dof rx rz
    limits (-45.0 90.0)
           (-20.0 70.0)
  end
  begin
     id 10 
     name rtoes
     direction -1.5353e-011 -4.2199e-011 1   
     length 1.21323   
     axis -90 -7.62852e-016 -20   XYZ
    dof rx
    limits (-90.0 20.0)
  end
  begin
     id 11 
     name lowerback
     direction -0.0218484 0.994884 -0.0986303   
     length 2.00523   
     axis 0 0 0   XYZ
    dof rx ry rz
    limits (-20.0 45.0)
           (-30.0 30.0)
           (-30.0 30.0)
  end
  begin
     id 12 
     name upperback
     direction -0.0097305 0.999717 -0.0217111   
     length 2.01352   
     axis 0 0 0   XYZ
    dof rx ry rz
    limits (-20.0 45.0)
           (-30.0 30.0)
           (-30.0 30.0)
  end
  begin
     id 13 
     name thorax
     direction -0.000928262 0.999699 0.0245198   
     length 2.02938   
     axis 0 0 0   XYZ
    dof rx ry rz
    limits (-20.0 45.0)
           (-30.0 30.0)
           (-30.0 30.0)
  end
  begin
     id 14 
     name lowerneck
     direction -0.0307979 0.998024 0.0547665   
     length 1.77263   
     axis 0 0 0   XYZ
    dof rx ry rz
    limits (-20.0 45.0)
           (-30.0 30.0)
           (-30.0 30.0)
  end
  begin
     id 15 
     name upperneck
     direction 0.0531587 0.996611 -0.0627734   
     length 1.77971   
     axis 0 0 0   XYZ
    dof rx ry rz
    limits (-20.0 45.0)
           (-30.0 30.0)
           (-30.0 30.0)
  end
  begin
     id 16
     name head
     direction 0.0213833 0.999404 -0.0271147  
     length 1.78263  
     axis 0 0 0   XYZ
    dof rx ry rz
    limits (-20.0 45.0)
           (-30.0 30.0)
           (-30.0 30.0)
  end
  begin
     id 17 
     name lclavicle
     direction 0.940017 0.332249 -0.0773233  
     length 3.73315  
     axis 0 0 0   XYZ
    dof ry rz
    limits (-20.0 10.0)
           (0.0 20.0)
  end
  begin
     id 18 
     name lhumerus
     direction 1 -4.48944e-011 7.52288e-028   
     length 5.40188   
     axis 180 -30 -90   XYZ
    dof rx ry rz
    limits (-60.0 90.0)
           (-90.0 90.0)
           (-90.0 90.0)
  end
  begin
     id 19
     name lradius
     direction 1 -4.48988e-011 1.48381e-027   
     length 3.68559   
     axis 180 -30 -90   XYZ
    dof rx
    limits (-10.0 170.0)
  end
  begin
     id 20
     name lwrist
     direction 1 -4.48925e-011 2.56952e-028   
     length 1.84279   
     axis -5.12785e-016 90 90   XYZ
    dof ry
    limits (-180.0 0.0)
 end
  begin
     id 21 
     name lhand
     direction 1 -4.49009e-011 5.13905e-028   
     length 0.61753   
     axis -3.27915e-016 90 90   XYZ
    dof rx rz
    limits (-90.0 90.0)
           (-45.0 45.0)
  end
  begin
     id 22 
     name lfingers
     direction 1 -4.49012e-011 1.02781e-027   
     length 0.497868   
     axis -6.5583e-016 90 90   XYZ
    dof rx
    limits (0.0 90.0)
  end
  begin
     id 23
     name lthumb
     direction 0.707107 -6.34987e-011 0.707107   
     length 0.714842   
     axis -90 45 2.85299e-015   XYZ
    dof rx rz
    limits (-45.0 45.0)
           (-45.0 45.0)
  end
  begin
     id 24 
     name rclavicle
     direction -0.9009 0.425937 -0.0834057   
     length 3.27864  
     axis 0 0 0   XYZ 
    dof ry rz
    limits (-10.0 20.0)
           (-20.0 0.0)
  end
  begin
     id 25 
     name rhumerus
     direction -1 -4.48953e-011 -1.03572e-027  
     length 6.1067   
     axis 180 30 90   XYZ
    dof rx ry rz
    limits (-90.0 60.0)
           (-90.0 90.0)
           (-90.0 90.0)
  end
  begin
     id 26 
     name rradius
     direction -1 -4.48975e-011 1.20742e-027   
     length 3.63052   
     axis 180 30 90   XYZ
    dof rx
    limits (-10.0 170.0)
  end
  begin
     id 27 
     name rwrist
     direction -1 -4.49017e-011 2.56952e-028   
     length 1.81526   
     axis -5.12785e-016 -90 -90   XYZ
    dof ry
    limits (-180.0 0.0)
  end
  begin
     id 28
     name rhand
     direction -1 -4.48832e-011 5.13905e-028   
     length 0.583848   
     axis -3.27915e-016 -90 -90   XYZ
    dof rx rz
    limits (-90.0 90.0)
           (-45.0 45.0)
  end
  begin
     id 29
     name rfingers
     direction -1 -4.48729e-011 1.02781e-027   
     length 0.470713   
     axis -6.5583e-016 -90 -90   XYZ
    dof rx
    limits (0.0 90.0)
  end
  begin
     id 30
     name rthumb
     direction -0.707107 -6.34964e-011 0.707107   
     length 0.675852   
     axis -90 -45 -2.85299e-015   XYZ
    dof rx rz
    limits (-45.0 45.0)
           (-45.0 45.0)
  end
:hierarchy
  begin
    root lhipjoint rhipjoint lowerback
    lhipjoint lfemur
    lfemur ltibia
    ltibia lfoot
    lfoot ltoes
    rhipjoint rfemur
    rfemur rtibia
    rtibia rfoot
    rfoot rtoes
    lowerback upperback
    upperback thorax
    thorax lowerneck lclavicle rclavicle
    lowerneck upperneck
    upperneck head
    lclavicle lhumerus
    lhumerus lradius
    lradius lwrist
    lwrist lhand lthumb
    lhand lfingers
    rclavicle rhumerus
    rhumerus rradius
    rradius rwrist
    rwrist rhand rthumb
    rhand rfingers
  end

#!OML:ASF F:\VICON\USERDATA\INSTALL\rory3\rory3.ASF
:FULLY-SPECIFIED
:DEGREES
16
root 0.170921 17.7408 -2.11678 4.19088 -5.62494 4.27744
lowerback 15.8005 0.422857 -3.63024
upperback 3.32372 -0.164599 -1.93231
thorax -5.31184 -0.0433783 0.0450604
lowerneck -11.7315 -3.50765 -9.55469
upperneck 0.345918 -3.74188 9.33098
head 2.35983 -1.59591 4.18042
rclavicle -1.14301e-015 -8.74653e-015
rhumerus -26.4425 1.11987 -82.7339
rradius 35.8025
rwrist 15.7622
rhand -26.2558 -3.35705
rfingers 7.12502
rthumb 0.298721 -33.3366
lclavicle -1.14301e-015 -8.74653e-015
lhumerus -30.8815 5.89341 79.4197
lradius 35.7601
lwrist 5.73374
lhand -22.7162 25.0588
lfingers 7.12502
lthumb 3.71714 55.0061
rfemur -26.5689 10.7888 12.595
rtibia 50.878
rfoot -28.2361 -9.66544
rtoes -8.60305
lfemur -25.0901 5.01069 -23.5897
ltibia 48.3146
lfoot -22.9033 1.44305
ltoes -5.79891
17
root 0.169748 17.6794 -2.14568 4.33558 -5.34784 4.41485
lowerback 16.1586 0.387943 -3.76076
upperback 3.39749 -0.246919 -1.9116
thorax -5.42439 -0.0806372 0.156433
lowerneck -11.6479 -3.3602 -9.39282
upperneck -0.118903 -3.54046 9.11978
head 2.18058 -1.50448 4.10386
rclavicle -1.20265e-014 -3.95581e-014
rhumerus -26.1539 1.00027 -82.5807
rradius 35.9256
rwrist 15.7409
rhand -26.7169 -3.2936
rfingers 7.12502
rthumb -0.146678 -33.2733
lclavicle -1.20265e-014 -3.95581e-014
lhumerus -30.674 5.67372 79.5971
lradius 36.1835
lwrist 5.73096
lhand -22.8364 25.2197
lfingers 7.12502
lthumb 3.60104 55.1691
rfemur -27.4005 10.3092 12.4465
rtibia 52.0285
rfoot -28.6384 -9.66216
rtoes -9.15456
lfemur -25.851 5.11856 -23.7125
ltibia 49.1812
lfoot -23.1335 0.9588
ltoes -5.16513
18
root 0.173078 17.6194 -2.1641 4.35061 -5.20217 4.52079
lowerback 16.5853 0.412413 -3.84038
upperback 3.44173 -0.248 -1.88211
thorax -5.60746 -0.0775621 0.231865
lowerneck -11.3888 -3.20068 -9.38682
upperneck -0.543512 -3.32598 9.07677
head 1.99214 -1.40522 4.1065
rclavicle -1.10325e-014 -8.94531e-015
rhumerus -26.0555 0.848356 -82.4024
rradius 36.0821
rwrist 15.4818
rhand -27.1938 -2.76919
rfingers 7.12502
rthumb -0.607271 -32.7481
lclavicle -1.10325e-014 -8.94531e-015
lhumerus -30.6533 5.35953 79.8143
lradius 36.578
lwrist 5.76877
lhand -23.2038 24.9494
lfingers 7.12502
lthumb 3.24624 54.9044
rfemur -28.0549 9.92592 12.3361
rtibia 53.1642
rfoot -29.0388 -9.64957
rtoes -9.8457
lfemur -26.4398 5.33853 -23.8229
ltibia 50.067
lfoot -23.4061 0.472731
ltoes -4.78532
19
root 0.180862 17.5626 -2.17658 4.25056 -5.0931 4.63281
lowerback 17.1085 0.427704 -3.8429
upperback 3.50151 -0.256509 -1.90329
thorax -5.82618 -0.0791474 0.211321
lowerneck -11.3386 -3.04828 -9.21293
upperneck -0.77714 -3.13244 8.94047
head 1.89102 -1.31382 4.04857
rclavicle 1.64494e-014 -3.67752e-015
rhumerus -26.0165 0.72909 -82.3006
rradius 36.2963
rwrist 15.2008
rhand -27.2144 -2.94358
rfingers 7.12502
rthumb -0.627185 -32.9224
lclavicle 1.64494e-014 -3.67752e-015
lhumerus -30.6152 4.90435 79.9853
lradius 36.9122
lwrist 5.97579
lhand -23.541 24.6487
lfingers 7.12502
lthumb 2.92065 54.6084
rfemur -28.522 9.62108 12.1951
rtibia 54.2612
rfoot -29.5481 -9.43208
rtoes -9.8777
lfemur -26.8808 5.57177 -23.9563
ltibia 50.966
lfoot -23.7507 0.0474099
ltoes -4.40629
20
root 0.185791 17.4979 -2.18998 4.20264 -4.91816 4.66101
lowerback 17.5501 0.409455 -3.7962
upperback 3.62658 -0.288584 -1.86083
thorax -5.92927 -0.0948374 0.236543
lowerneck -11.6073 -2.96982 -9.13648
upperneck -0.876285 -3.00674 8.83118
head 1.88864 -1.24822 4.00805
rclavicle 4.91992e-015 -8.94531e-016
rhumerus -25.8412 0.652545 -82.1368
rradius 36.5549
rwrist 15.2629
rhand -27.0019 -3.72019
rfingers 7.12502
rthumb -0.421952 -33.6995
lclavicle 4.91992e-015 -8.94531e-016
lhumerus -30.3566 4.60066 80.1938
lradius 37.1176
lwrist 6.07413
lhand -23.7185 24.8603
lfingers 7.12502
lthumb 2.74923 54.8224
rfemur -29.007 9.27477 12.1466
rtibia 55.3326
rfoot -30.0818 -9.09062
rtoes -9.6683
lfemur -27.3976 5.73527 -23.9771
ltibia 51.8862
lfoot -24.1046 -0.432614
ltoes -3.98944
21
root 0.190513 17.4359 -2.20003 4.14799 -4.71935 4.86914
lowerback 17.9102 0.410127 -3.93494
upperback 3.78269 -0.326519 -1.85625
thorax -5.95308 -0.112087 0.32831
lowerneck -11.8388 -2.9221 -9.19047
upperneck -0.990154 -2.91097 8.83994
head 1.88328 -1.195 4.02409
rclavicle 1.25483e-014 -3.18055e-015
rhumerus -25.6551 0.600926 -81.9408
rradius 36.7825
rwrist 15.4202
rhand -26.9901 -4.24219
rfingers 7.12502
rthumb -0.410497 -34.2215
lclavicle 1.25483e-014 -3.18055e-015
lhumerus -30.0834 4.37715 80.3978
lradius 37.3143
lwrist 5.97242
lhand -23.8797 25.1777
lfingers 7.12502
lthumb 2.59358 55.1416
rfemur -29.4804 8.84413 11.9104
rtibia 56.3879
rfoot -30.5532 -8.86708
rtoes -9.82744
lfemur -27.8766 5.91208 -24.207
ltibia 52.7992
lfoot -24.4204 -0.881394
ltoes -3.6593
22
root 0.196938 17.3776 -2.2089 4.10904 -4.5275 5.00684
lowerback 18.2411 0.40426 -3.97256
upperback 3.87783 -0.355371 -1.84972
thorax -6.02698 -0.125107 0.362962
lowerneck -11.6821 -2.82287 -9.21463
upperneck -1.25539 -2.77488 8.84545
head 1.76792 -1.13041 4.03953
rclavicle -8.3738e-015 3.67752e-015
rhumerus -25.5902 0.529466 -81.7565
rradius 36.9681
rwrist 15.393
rhand -27.2848 -4.44205
rfingers 7.12502
rthumb -0.695198 -34.4207
lclavicle -8.3738e-015 3.67752e-015
lhumerus -29.9652 4.2182 80.5569
lradius 37.506
lwrist 5.87846
lhand -24.0923 25.1896
lfingers 7.12502
lthumb 2.38824 55.156
rfemur -30.0017 8.43302 11.755
rtibia 57.4171
rfoot -30.9061 -8.84251
rtoes -10.2329
lfemur -28.3675 6.12376 -24.3816
ltibia 53.7316
lfoot -24.6932 -1.19029
ltoes -3.51352
23
root 0.20104 17.3184 -2.22213 4.1503 -4.29164 4.95767
lowerback 18.5413 0.354375 -3.83292
upperback 3.91832 -0.406881 -1.82232
thorax -6.14345 -0.150508 0.324884
lowerneck -11.388 -2.70076 -9.00987
upperneck -1.59398 -2.64219 8.70382
head 1.60362 -1.07495 3.97265
rclavicle 3.3048e-015 9.14409e-015
rhumerus -25.5883 0.314217 -81.6592
rradius 37.1561
rwrist 15.306
rhand -27.5494 -4.22923
rfingers 7.12502
rthumb -0.950674 -34.2069
lclavicle 3.3048e-015 9.14409e-015
lhumerus -29.8975 3.94685 80.6416
lradius 37.7303
lwrist 5.91193
lhand -24.2899 25.4007
lfingers 7.12502
lthumb 2.1974 55.3692
rfemur -30.6145 8.04518 11.8294
rtibia 58.4362
rfoot -31.1479 -9.02705
rtoes -11.1196
lfemur -28.998 6.29218 -24.3434
ltibia 54.6752
lfoot -24.876 -1.58429
ltoes -2.98131
24
root 0.205194 17.2559 -2.23462 4.20654 -4.0723 4.9699
lowerback 18.819 0.320942 -3.74148
upperback 3.99796 -0.444675 -1.82382
thorax -6.20578 -0.169862 0.280426
lowerneck -11.4621 -2.57651 -8.91522
upperneck -1.74728 -2.47468 8.71036
head 1.554 -0.989778 3.96832
rclavicle -2.87492e-014 -1.98785e-016
rhumerus -25.4896 0.0493967 -81.5628
rradius 37.3248
rwrist 15.2131
rhand -27.5975 -3.48643
rfingers 7.12502
rthumb -0.997199 -33.4638
lclavicle -2.87492e-014 -1.98785e-016
lhumerus -29.5941 3.56215 80.7226
lradius 37.8385
lwrist 6.02027
lhand -24.3222 25.1218
lfingers 7.12502
lthumb 2.1662 55.0906
rfemur -31.2327 7.63301 11.8262
rtibia 59.4532
rfoot -31.4509 -9.15807
rtoes -11.8805
lfemur -29.6674 6.51512 -24.3849
ltibia 55.632
lfoot -25.1006 -1.989
ltoes -2.91247
25
root 0.209289 17.191 -2.24801 4.22318 -3.88753 5.05747
lowerback 19.187 0.319496 -3.76729
upperback 4.08655 -0.467256 -1.81903
thorax -6.30552 -0.179447 0.305703
lowerneck -11.6108 -2.50257 -8.89879
upperneck -1.89724 -2.35956 8.75712
head 1.52337 -0.92791 3.98603
rclavicle 8.19987e-016 2.13694e-015
rhumerus -25.3739 -0.0383504 -81.4428
rradius 37.5222
rwrist 14.9255
rhand -28.3013 -2.31859
rfingers 7.12502
rthumb -1.6769 -32.2917
lclavicle 8.19987e-016 2.13694e-015
lhumerus -29.2335 3.11079 80.8678
lradius 37.9512
lwrist 6.19079
lhand -24.5465 24.9821
lfingers 7.12502
lthumb 1.94958 54.953
rfemur -31.8497 7.23084 11.7261
rtibia 60.4934
rfoot -31.7946 -9.16011
rtoes -12.1845
lfemur -30.2812 6.73203 -24.5057
ltibia 56.6095
lfoot -25.4045 -2.36393
ltoes -2.89784
26
root 0.209954 17.1238 -2.26323 4.16656 -3.71219 5.19512
lowerback 19.594 0.346992 -3.9136
upperback 4.19687 -0.476564 -1.79872
thorax -6.4008 -0.180803 0.413017
lowerneck -11.498 -2.51466 -8.8203
upperneck -2.24858 -2.37607 8.67075
head 1.4001 -0.94134 3.94763
rclavicle 1.01256e-014 -3.926e-015
rhumerus -25.2676 -0.0577668 -81.3209
rradius 37.7234
rwrist 14.6613
rhand -29.2672 -1.53313
rfingers 7.12502
rthumb -2.60979 -31.4969
lclavicle 1.01256e-014 -3.926e-015
lhumerus -29.0118 2.84215 81.0122
lradius 38.1772
lwrist 5.99656
lhand -24.8042 25.0875
lfingers 7.12502
lthumb 1.70063 55.0605
rfemur -32.4131 6.85927 11.602
rtibia 61.5568
rfoot -32.1363 -9.19388
rtoes -12.8153
lfemur -30.8144 6.96107 -24.6733
ltibia 57.6
lfoot -25.7415 -2.64263
ltoes -2.98824
